<?xml version="1.0" encoding="UTF-8"?>
<svg id="Layer_1" data-name="Layer 1" xmlns="http://www.w3.org/2000/svg" viewBox="0 0 91.34 34.88">
  <defs>
    <style>
      .cls-1 {
        fill: #5f6062;
      }

      .cls-2 {
        fill: #5a0402;
        stroke: #d1d3d4;
        stroke-miterlimit: 10;
      }
    </style>
  </defs>
  <path class="cls-2" d="M90.84,8.5V26.38c0,4.42-3.59,8-8,8H8.5c-4.41,0-8-3.58-8-8V8.5c0-.17,.01-.34,.02-.51C.78,3.81,4.26,.5,8.5,.5H82.84c4.24,0,7.72,3.31,7.98,7.49,0,.17,.02,.34,.02,.51Z"/>
  <path class="cls-1" d="M10.73,.5V2.66c0,2.96-2.4,5.36-5.37,5.36H1.03c-.17,0-.34,0-.51-.03C.78,3.81,4.26,.5,8.5,.5h2.23Z"/>
  <path class="cls-1" d="M90.82,7.99c-.17,.02-.34,.03-.51,.03h-4.33c-2.97,0-5.37-2.4-5.37-5.36V.5h2.23c4.24,0,7.72,3.31,7.98,7.49Z"/>
  <path class="cls-1" d="M90.84,25.05v1.33c0,4.42-3.59,8-8,8h-2.23v-4c0-2.96,2.4-5.36,5.37-5.36h4.33c.18,0,.35,.01,.53,.03Z"/>
  <path class="cls-1" d="M10.73,30.38v4h-2.23c-4.41,0-8-3.58-8-8v-1.33c.18-.02,.35-.03,.53-.03H5.36c2.97,0,5.37,2.4,5.37,5.36Z"/>
</svg>